<svg viewBox="0 0 238 240" fill="none" xmlns="http://www.w3.org/2000/svg">
<g opacity="0.22">
<path fill-rule="evenodd" clip-rule="evenodd" d="M194.961 162.059C184.608 182.597 166.916 198.858 144.954 205.709C122.78 212.627 96.7652 212.559 78.3026 198.453C61.2956 185.46 65.0469 160.331 58.7795 139.872C52.4565 119.232 34.5367 100.143 41.9797 79.886C49.8795 58.3862 73.3696 47.5928 95.2189 40.6993C117.419 33.695 141.954 30.7459 162.398 41.8932C182.746 52.9883 193.417 75.1843 199.477 97.5475C205.339 119.18 205.047 142.05 194.961 162.059Z" fill="#0A6560"/>
<path fill-rule="evenodd" clip-rule="evenodd" d="M178.353 153.313C170.229 169.429 156.349 182.19 139.121 187.569C121.726 193 101.32 192.951 86.8404 181.887C73.5021 171.695 76.4486 151.978 71.5357 135.927C66.5792 119.734 52.5259 104.759 58.3674 88.864C64.5673 71.9939 82.9946 63.5217 100.134 58.1095C117.549 52.6104 136.795 50.2928 152.829 59.0358C168.788 67.7379 177.155 85.1513 181.905 102.697C186.5 119.669 186.267 137.613 178.353 153.313Z" fill="#058078"/>
</g>
</svg>
