<svg viewBox="0 0 12 12" fill="none" xmlns="http://www.w3.org/2000/svg">
<path d="M12 9C12 9.35362 11.8595 9.69276 11.6095 9.94281C11.3594 10.1929 11.0203 10.3333 10.6667 10.3333H8V1.66667H10.6667C11.0203 1.66667 11.3594 1.80714 11.6095 2.05719C11.8595 2.30724 12 2.64638 12 3V9Z" fill="#ED2939"/>
<path d="M1.33333 1.66667C0.979711 1.66667 0.640573 1.80714 0.390524 2.05719C0.140476 2.30724 0 2.64638 0 3L0 9C0 9.35362 0.140476 9.69276 0.390524 9.94281C0.640573 10.1929 0.979711 10.3333 1.33333 10.3333H4V1.66667H1.33333Z" fill="#002495"/>
<path d="M4 1.66667H8V10.3333H4V1.66667Z" fill="#EEEEEE"/>
</svg>
