<svg width="29" height="29" viewBox="0 0 29 29" fill="none" xmlns="http://www.w3.org/2000/svg">
<path fill-rule="evenodd" clip-rule="evenodd" d="M16.6831 13.4762L0 10.7678L5.26 14.6399L15.2251 15.3471L4.17052 15.3075L7.01112 17.594L16.896 16.5928L8.6241 18.203L15.1927 19.7465L21.3733 16.4473L16.6832 13.4762L16.6831 13.4762ZM18.956 13.6654L14.7247 2.10932L18.2709 3.84069L20.1313 11.3199L18.6136 2.54989L20.6725 3.36158L21.2696 11.8601L21.3384 3.94137L23.236 6.91111L21.9557 15.6388L18.9559 13.6654L18.956 13.6654ZM28.9913 8.89067L27.6362 10.3894L29 15.7772L25.6834 21.0453L21.0051 21.4466L23.3663 19.1438L18.9822 21.6199L9.81024 26.8907L17.3703 19.8062L22.5636 16.8167L23.7044 10.3193L25.6949 8.77332L27.3236 9.04759L28.9913 8.89066L28.9913 8.89067Z" fill="#058078"/>
</svg>
